<svg xmlns="http://www.w3.org/2000/svg" width="778" height="168" viewBox="0 0 778 168">
<rect width="778" height="168" rx="14" fill="#101a19"/>
<rect x="0.5" y="0.5" width="777" height="167" rx="14" fill="none" stroke="#ffffff" stroke-opacity="0.08"/>
<text x="24" y="38" font-family="SF Mono, ui-monospace, Menlo, monospace" font-size="18" font-weight="bold" fill="#e8e0d4">Icebergs</text>
<text x="754" y="38" text-anchor="end" font-family="SF Mono, ui-monospace, Menlo, monospace" font-size="12" fill="#6e8380">after Frederic Edwin Church, 1861</text>
<rect x="24" y="56" width="86" height="40" rx="9" fill="#182422"/>
<text x="67.0" y="79.5" text-anchor="middle" font-family="SF Mono, ui-monospace, Menlo, monospace" font-size="10" fill="#ffffff" fill-opacity="0.75">#182422</text>
<rect x="116" y="56" width="86" height="40" rx="9" fill="#c76f5c"/>
<text x="159.0" y="79.5" text-anchor="middle" font-family="SF Mono, ui-monospace, Menlo, monospace" font-size="10" fill="#1a1a1a" fill-opacity="0.75">#c76f5c</text>
<rect x="208" y="56" width="86" height="40" rx="9" fill="#63a68f"/>
<text x="251.0" y="79.5" text-anchor="middle" font-family="SF Mono, ui-monospace, Menlo, monospace" font-size="10" fill="#1a1a1a" fill-opacity="0.75">#63a68f</text>
<rect x="300" y="56" width="86" height="40" rx="9" fill="#d3a778"/>
<text x="343.0" y="79.5" text-anchor="middle" font-family="SF Mono, ui-monospace, Menlo, monospace" font-size="10" fill="#1a1a1a" fill-opacity="0.75">#d3a778</text>
<rect x="392" y="56" width="86" height="40" rx="9" fill="#85a5b5"/>
<text x="435.0" y="79.5" text-anchor="middle" font-family="SF Mono, ui-monospace, Menlo, monospace" font-size="10" fill="#1a1a1a" fill-opacity="0.75">#85a5b5</text>
<rect x="484" y="56" width="86" height="40" rx="9" fill="#bd8f95"/>
<text x="527.0" y="79.5" text-anchor="middle" font-family="SF Mono, ui-monospace, Menlo, monospace" font-size="10" fill="#1a1a1a" fill-opacity="0.75">#bd8f95</text>
<rect x="576" y="56" width="86" height="40" rx="9" fill="#83b8b0"/>
<text x="619.0" y="79.5" text-anchor="middle" font-family="SF Mono, ui-monospace, Menlo, monospace" font-size="10" fill="#1a1a1a" fill-opacity="0.75">#83b8b0</text>
<rect x="668" y="56" width="86" height="40" rx="9" fill="#d9d2c5"/>
<text x="711.0" y="79.5" text-anchor="middle" font-family="SF Mono, ui-monospace, Menlo, monospace" font-size="10" fill="#1a1a1a" fill-opacity="0.75">#d9d2c5</text>
<rect x="24" y="104" width="86" height="40" rx="9" fill="#6e8380"/>
<text x="67.0" y="127.5" text-anchor="middle" font-family="SF Mono, ui-monospace, Menlo, monospace" font-size="10" fill="#1a1a1a" fill-opacity="0.75">#6e8380</text>
<rect x="116" y="104" width="86" height="40" rx="9" fill="#dc8a75"/>
<text x="159.0" y="127.5" text-anchor="middle" font-family="SF Mono, ui-monospace, Menlo, monospace" font-size="10" fill="#1a1a1a" fill-opacity="0.75">#dc8a75</text>
<rect x="208" y="104" width="86" height="40" rx="9" fill="#7fc0a8"/>
<text x="251.0" y="127.5" text-anchor="middle" font-family="SF Mono, ui-monospace, Menlo, monospace" font-size="10" fill="#1a1a1a" fill-opacity="0.75">#7fc0a8</text>
<rect x="300" y="104" width="86" height="40" rx="9" fill="#e5bd92"/>
<text x="343.0" y="127.5" text-anchor="middle" font-family="SF Mono, ui-monospace, Menlo, monospace" font-size="10" fill="#1a1a1a" fill-opacity="0.75">#e5bd92</text>
<rect x="392" y="104" width="86" height="40" rx="9" fill="#a2bfcd"/>
<text x="435.0" y="127.5" text-anchor="middle" font-family="SF Mono, ui-monospace, Menlo, monospace" font-size="10" fill="#1a1a1a" fill-opacity="0.75">#a2bfcd</text>
<rect x="484" y="104" width="86" height="40" rx="9" fill="#d3a9ae"/>
<text x="527.0" y="127.5" text-anchor="middle" font-family="SF Mono, ui-monospace, Menlo, monospace" font-size="10" fill="#1a1a1a" fill-opacity="0.75">#d3a9ae</text>
<rect x="576" y="104" width="86" height="40" rx="9" fill="#a1d0c8"/>
<text x="619.0" y="127.5" text-anchor="middle" font-family="SF Mono, ui-monospace, Menlo, monospace" font-size="10" fill="#1a1a1a" fill-opacity="0.75">#a1d0c8</text>
<rect x="668" y="104" width="86" height="40" rx="9" fill="#f2ece1"/>
<text x="711.0" y="127.5" text-anchor="middle" font-family="SF Mono, ui-monospace, Menlo, monospace" font-size="10" fill="#1a1a1a" fill-opacity="0.75">#f2ece1</text>
</svg>
