<svg xmlns="http://www.w3.org/2000/svg" width="778" height="168" viewBox="0 0 778 168">
<rect width="778" height="168" rx="14" fill="#0a0a0a"/>
<rect x="0.5" y="0.5" width="777" height="167" rx="14" fill="none" stroke="#ffffff" stroke-opacity="0.08"/>
<text x="24" y="38" font-family="SF Mono, ui-monospace, Menlo, monospace" font-size="18" font-weight="bold" fill="#fafafa">Voltage</text>
<text x="754" y="38" text-anchor="end" font-family="SF Mono, ui-monospace, Menlo, monospace" font-size="12" fill="#737373">neutral black, electric accents</text>
<rect x="24" y="56" width="86" height="40" rx="9" fill="#171717"/>
<text x="67.0" y="79.5" text-anchor="middle" font-family="SF Mono, ui-monospace, Menlo, monospace" font-size="10" fill="#ffffff" fill-opacity="0.75">#171717</text>
<rect x="116" y="56" width="86" height="40" rx="9" fill="#ff2e3f"/>
<text x="159.0" y="79.5" text-anchor="middle" font-family="SF Mono, ui-monospace, Menlo, monospace" font-size="10" fill="#1a1a1a" fill-opacity="0.75">#ff2e3f</text>
<rect x="208" y="56" width="86" height="40" rx="9" fill="#0dbe4e"/>
<text x="251.0" y="79.5" text-anchor="middle" font-family="SF Mono, ui-monospace, Menlo, monospace" font-size="10" fill="#1a1a1a" fill-opacity="0.75">#0dbe4e</text>
<rect x="300" y="56" width="86" height="40" rx="9" fill="#ffca00"/>
<text x="343.0" y="79.5" text-anchor="middle" font-family="SF Mono, ui-monospace, Menlo, monospace" font-size="10" fill="#1a1a1a" fill-opacity="0.75">#ffca00</text>
<rect x="392" y="56" width="86" height="40" rx="9" fill="#009fff"/>
<text x="435.0" y="79.5" text-anchor="middle" font-family="SF Mono, ui-monospace, Menlo, monospace" font-size="10" fill="#1a1a1a" fill-opacity="0.75">#009fff</text>
<rect x="484" y="56" width="86" height="40" rx="9" fill="#e130ac"/>
<text x="527.0" y="79.5" text-anchor="middle" font-family="SF Mono, ui-monospace, Menlo, monospace" font-size="10" fill="#1a1a1a" fill-opacity="0.75">#e130ac</text>
<rect x="576" y="56" width="86" height="40" rx="9" fill="#08c0ef"/>
<text x="619.0" y="79.5" text-anchor="middle" font-family="SF Mono, ui-monospace, Menlo, monospace" font-size="10" fill="#1a1a1a" fill-opacity="0.75">#08c0ef</text>
<rect x="668" y="56" width="86" height="40" rx="9" fill="#bcbcbc"/>
<text x="711.0" y="79.5" text-anchor="middle" font-family="SF Mono, ui-monospace, Menlo, monospace" font-size="10" fill="#1a1a1a" fill-opacity="0.75">#bcbcbc</text>
<rect x="24" y="104" width="86" height="40" rx="9" fill="#ff678d"/>
<text x="67.0" y="127.5" text-anchor="middle" font-family="SF Mono, ui-monospace, Menlo, monospace" font-size="10" fill="#1a1a1a" fill-opacity="0.75">#ff678d</text>
<rect x="116" y="104" width="86" height="40" rx="9" fill="#5ecc71"/>
<text x="159.0" y="127.5" text-anchor="middle" font-family="SF Mono, ui-monospace, Menlo, monospace" font-size="10" fill="#1a1a1a" fill-opacity="0.75">#5ecc71</text>
<rect x="208" y="104" width="86" height="40" rx="9" fill="#68cdf2"/>
<text x="251.0" y="127.5" text-anchor="middle" font-family="SF Mono, ui-monospace, Menlo, monospace" font-size="10" fill="#1a1a1a" fill-opacity="0.75">#68cdf2</text>
<rect x="300" y="104" width="86" height="40" rx="9" fill="#ffd452"/>
<text x="343.0" y="127.5" text-anchor="middle" font-family="SF Mono, ui-monospace, Menlo, monospace" font-size="10" fill="#1a1a1a" fill-opacity="0.75">#ffd452</text>
<rect x="392" y="104" width="86" height="40" rx="9" fill="#ffa359"/>
<text x="435.0" y="127.5" text-anchor="middle" font-family="SF Mono, ui-monospace, Menlo, monospace" font-size="10" fill="#1a1a1a" fill-opacity="0.75">#ffa359</text>
<rect x="484" y="104" width="86" height="40" rx="9" fill="#9d6afb"/>
<text x="527.0" y="127.5" text-anchor="middle" font-family="SF Mono, ui-monospace, Menlo, monospace" font-size="10" fill="#1a1a1a" fill-opacity="0.75">#9d6afb</text>
<rect x="576" y="104" width="86" height="40" rx="9" fill="#d568ea"/>
<text x="619.0" y="127.5" text-anchor="middle" font-family="SF Mono, ui-monospace, Menlo, monospace" font-size="10" fill="#1a1a1a" fill-opacity="0.75">#d568ea</text>
<rect x="668" y="104" width="86" height="40" rx="9" fill="#fafafa"/>
<text x="711.0" y="127.5" text-anchor="middle" font-family="SF Mono, ui-monospace, Menlo, monospace" font-size="10" fill="#1a1a1a" fill-opacity="0.75">#fafafa</text>
</svg>
